<svg id="최종경롱아이콘" xmlns="http://www.w3.org/2000/svg" xmlns:xlink="http://www.w3.org/1999/xlink" width="14" height="10" viewBox="0 0 14 10">
  <defs>
    <clipPath id="clip-path">
      <rect id="사각형_2526" data-name="사각형 2526" width="14" height="10" fill="#fff"/>
    </clipPath>
  </defs>
  <g id="그룹_1491" data-name="그룹 1491" transform="translate(0 0)" clip-path="url(#clip-path)">
    <path id="패스_2555" data-name="패스 2555" d="M14.2,2.5H8.6A1.332,1.332,0,0,1,7.2,1.25,1.332,1.332,0,0,1,8.6,0h5.6a1.331,1.331,0,0,1,1.4,1.25A1.331,1.331,0,0,1,14.2,2.5" transform="translate(-1.6 0)" fill="#fff"/>
    <path id="패스_2556" data-name="패스 2556" d="M2.8,2.5H1.4A1.332,1.332,0,0,1,0,1.25,1.332,1.332,0,0,1,1.4,0H2.8A1.332,1.332,0,0,1,4.2,1.25,1.332,1.332,0,0,1,2.8,2.5" transform="translate(0 0)" fill="#fff"/>
    <path id="패스_2557" data-name="패스 2557" d="M14.2,7.9H8.6A1.332,1.332,0,0,1,7.2,6.65,1.332,1.332,0,0,1,8.6,5.4h5.6a1.331,1.331,0,0,1,1.4,1.25A1.331,1.331,0,0,1,14.2,7.9" transform="translate(-1.6 -1.65)" fill="#fff"/>
    <path id="패스_2558" data-name="패스 2558" d="M2.8,7.9H1.4A1.332,1.332,0,0,1,0,6.65,1.332,1.332,0,0,1,1.4,5.4H2.8A1.332,1.332,0,0,1,4.2,6.65,1.332,1.332,0,0,1,2.8,7.9" transform="translate(0 -1.65)" fill="#fff"/>
    <path id="패스_2559" data-name="패스 2559" d="M14.2,13.3H8.6a1.332,1.332,0,0,1-1.4-1.25A1.332,1.332,0,0,1,8.6,10.8h5.6a1.331,1.331,0,0,1,1.4,1.25,1.331,1.331,0,0,1-1.4,1.25" transform="translate(-1.6 -3.3)" fill="#fff"/>
    <path id="패스_2560" data-name="패스 2560" d="M2.8,13.3H1.4A1.332,1.332,0,0,1,0,12.05,1.332,1.332,0,0,1,1.4,10.8H2.8a1.332,1.332,0,0,1,1.4,1.25A1.332,1.332,0,0,1,2.8,13.3" transform="translate(0 -3.3)" fill="#fff"/>
  </g>
</svg>
