<svg xmlns="http://www.w3.org/2000/svg" width="107.698" height="22.688" viewBox="0 0 107.698 22.688">
  <g id="CI_AgileSoDA" transform="translate(-186.229 -1127.001)">
    <g id="그룹_1345" data-name="그룹 1345" transform="translate(186.229 1127.001)">
      <path id="패스_2174" data-name="패스 2174" d="M300.875,1130.791a2.287,2.287,0,0,0-2.424-.337,2.288,2.288,0,1,0,2.424.337Z" transform="translate(-271.87 -1129.51)" fill="#141d3e"/>
      <path id="패스_2175" data-name="패스 2175" d="M413.248,1134.706a1.175,1.175,0,0,1,.447.083,1.2,1.2,0,0,1,.359.228.97.97,0,0,1,.244.343.986.986,0,0,1,.092.424,1.031,1.031,0,0,1-.045.308c-.029.1-.061.2-.1.3s-.066.206-.1.315a1.333,1.333,0,0,0-.045.361,2.894,2.894,0,0,0,.287,1.265,2.979,2.979,0,0,0,.849,1.043,4.3,4.3,0,0,0,1.4.709,6.655,6.655,0,0,0,1.94.256,3.268,3.268,0,0,0,.413-.03,3.1,3.1,0,0,0,.513-.111,2.777,2.777,0,0,0,.534-.225,1.86,1.86,0,0,0,.479-.359,1.766,1.766,0,0,0,.343-.531,1.838,1.838,0,0,0,.135-.732,1.464,1.464,0,0,0-.3-.884,3.928,3.928,0,0,0-.792-.767,9.748,9.748,0,0,0-1.114-.713c-.416-.233-.844-.471-1.277-.723s-.858-.514-1.276-.8a7.215,7.215,0,0,1-1.115-.932,4.3,4.3,0,0,1-.788-1.129,3.122,3.122,0,0,1-.3-1.387,3.676,3.676,0,0,1,.242-1.388,3.471,3.471,0,0,1,.648-1.041,3.906,3.906,0,0,1,.9-.727,5.9,5.9,0,0,1,1.008-.465,5.451,5.451,0,0,1,.978-.25,5.3,5.3,0,0,1,.8-.074h.126a4.8,4.8,0,0,1,1.319.19,2.977,2.977,0,0,1,.89.418,1.61,1.61,0,0,1,.5.545,1.214,1.214,0,0,1,.156.561,1.25,1.25,0,0,1-.108.527,1.285,1.285,0,0,1-.287.415,1.306,1.306,0,0,1-.426.267,1.325,1.325,0,0,1-.5.092.917.917,0,0,1-.639-.2.6.6,0,0,1-.217-.46,1.172,1.172,0,0,1,.021-.232,1.036,1.036,0,0,0,.024-.2.229.229,0,0,0-.065-.162.356.356,0,0,0-.251-.062,2.276,2.276,0,0,0-.835.151,2.115,2.115,0,0,0-.65.4,1.711,1.711,0,0,0-.418.578,1.624,1.624,0,0,0-.148.677.877.877,0,0,0,.3.635,4.117,4.117,0,0,0,.8.583c.331.195.708.394,1.134.6s.857.425,1.3.658.87.5,1.3.777a6.468,6.468,0,0,1,1.133.951,4.481,4.481,0,0,1,.8,1.177,3.453,3.453,0,0,1,.3,1.464,3.778,3.778,0,0,1-.418,1.748,4.18,4.18,0,0,1-1.207,1.41,6.009,6.009,0,0,1-1.908.942,8.721,8.721,0,0,1-2.544.342h-.053a9.331,9.331,0,0,1-2.585-.336,6.453,6.453,0,0,1-2-.939,4.307,4.307,0,0,1-1.293-1.418,3.591,3.591,0,0,1-.46-1.792,5.773,5.773,0,0,1,.068-.831,3.558,3.558,0,0,1,.236-.873,2,2,0,0,1,.466-.7A1.1,1.1,0,0,1,413.248,1134.706Z" transform="translate(-360.381 -1127.058)" fill="#141d3e"/>
      <g id="그룹_1344" data-name="그룹 1344" transform="translate(64.838 3.845)">
        <path id="패스_2176" data-name="패스 2176" d="M473.965,1155.658a2.725,2.725,0,0,1,.664-2.836l-1.943-1.977a5.627,5.627,0,0,0-.845,1.054,5.491,5.491,0,0,0,.147,5.946l2.3-1.554A2.843,2.843,0,0,1,473.965,1155.658Z" transform="translate(-471.039 -1149.262)" fill="#507cb3"/>
        <path id="패스_2177" data-name="패스 2177" d="M482.631,1144.694a5.49,5.49,0,0,0-4.155-.651l.65,2.7a2.727,2.727,0,1,1-1.614,4.179l-2.3,1.553a5.5,5.5,0,0,0,9.247-.216A5.5,5.5,0,0,0,482.631,1144.694Z" transform="translate(-474.264 -1143.889)" fill="#141d3e"/>
        <path id="패스_2178" data-name="패스 2178" d="M481.237,1147.338c.086-.029.17-.054.254-.075l-.65-2.7a5.5,5.5,0,0,0-2.564,1.429l1.943,1.977A2.712,2.712,0,0,1,481.237,1147.338Z" transform="translate(-476.629 -1144.412)" fill="#95c2d8"/>
      </g>
      <path id="패스_2179" data-name="패스 2179" d="M235.267,1134.793a.358.358,0,0,0-.224-.074.659.659,0,0,0-.345.082.453.453,0,0,0-.184.233c-.084.219-.2.474-.34.77a10.116,10.116,0,0,1-.516.927,9.744,9.744,0,0,1-.673.952,5.806,5.806,0,0,1-.823.844,4.231,4.231,0,0,1-.967.612,2.758,2.758,0,0,1-1.1.232,2.079,2.079,0,0,1-.81-.146,1.8,1.8,0,0,1-.586-.392,1.947,1.947,0,0,1-.387-.583,2.778,2.778,0,0,1-.2-.7,5.41,5.41,0,0,0,1.689-.433,4.055,4.055,0,0,0,1.14-.758,2.831,2.831,0,0,0,.644-.9,2.153,2.153,0,0,0,.2-.864,1.865,1.865,0,0,0-.161-.771,2.117,2.117,0,0,0-.446-.644,2.216,2.216,0,0,0-.664-.443,2.036,2.036,0,0,0-.825-.171,4.638,4.638,0,0,0-1.4.21,4.5,4.5,0,0,0-1.172.564,4.3,4.3,0,0,0-.924.847,5.251,5.251,0,0,0-.494.715l0,0c-.062.108-.122.219-.177.332a5.055,5.055,0,0,0-.241.579q-.18.382-.4.791c-.164.3-.341.608-.529.908a9.608,9.608,0,0,1-.563.815,3.67,3.67,0,0,1-.559.585.83.83,0,0,1-.509.225.748.748,0,0,1-.507-.176,1.345,1.345,0,0,1-.343-.467,3.131,3.131,0,0,1-.216-.653,5.89,5.89,0,0,1-.115-.73c-.024-.247-.038-.484-.044-.713s-.008-.426-.008-.591a4.5,4.5,0,0,0,.7-.688,6.729,6.729,0,0,0,.626-.88,10.5,10.5,0,0,0,.526-.991,9.938,9.938,0,0,0,.4-1.026,8.113,8.113,0,0,0,.26-.987,4.56,4.56,0,0,0,.092-.872,9.834,9.834,0,0,0-.079-1.261,3.889,3.889,0,0,0-.285-1.074,1.876,1.876,0,0,0-.573-.749,1.472,1.472,0,0,0-.931-.282,2.529,2.529,0,0,0-1.123.246,2.944,2.944,0,0,0-.88.673,4.582,4.582,0,0,0-.665,1,8.08,8.08,0,0,0-.48,1.222,11.026,11.026,0,0,0-.323,1.349c-.082.462-.146.917-.2,1.366s-.078.873-.094,1.286c-.015.325-.023.621-.026.894v0c-.076.2-.179.428-.31.7s-.275.568-.44.868-.34.608-.529.908a8.754,8.754,0,0,1-.564.815,3.505,3.505,0,0,1-.558.585.827.827,0,0,1-.506.225.452.452,0,0,1-.314-.1.553.553,0,0,1-.163-.263,1.5,1.5,0,0,1-.061-.392c-.007-.147-.01-.309-.01-.48,0-.292,0-.629,0-1s.01-.749.014-1.114.011-.708.013-1.014.007-.545.007-.71a.834.834,0,0,0-.133-.467,1.326,1.326,0,0,0-.338-.351,2.284,2.284,0,0,0-.464-.257,3.747,3.747,0,0,0-.5-.168c-.165-.039-.319-.068-.462-.087a2.9,2.9,0,0,0-.341-.028.5.5,0,0,0-.342.124.956.956,0,0,0-.233.321,1.821,1.821,0,0,0-.14.458c-.033.172-.059.351-.078.534s-.026.361-.03.541c0,.141,0,.269,0,.389a8.735,8.735,0,0,1-1.138,2.061,13.736,13.736,0,0,1-1.576,1.757c.029-.286.057-.59.089-.906s.057-.636.087-.954.056-.626.084-.929.048-.584.065-.849.032-.5.044-.7.017-.365.017-.49a1.468,1.468,0,0,0-.133-.664,1.206,1.206,0,0,0-.333-.429,1.317,1.317,0,0,0-.446-.226,1.638,1.638,0,0,0-.463-.072,1.53,1.53,0,0,0-.568.1,1.369,1.369,0,0,0-.434.273,1.619,1.619,0,0,0-.315.4,3.066,3.066,0,0,0-.216.492,2.831,2.831,0,0,0-.273-.492,2.192,2.192,0,0,0-.4-.446,1.76,1.76,0,0,0-.528-.315,1.719,1.719,0,0,0-.653-.124,3.227,3.227,0,0,0-1.7.474,4.458,4.458,0,0,0-1.344,1.277,5.788,5.788,0,0,0-.425.725v0c-.088.176-.17.357-.244.547a3.288,3.288,0,0,1-.77.965,5.554,5.554,0,0,1-1.643.944c-.025-.675-.055-1.4-.1-2.176s-.091-1.545-.15-2.313-.124-1.5-.2-2.21-.149-1.332-.227-1.876a10.768,10.768,0,0,0-.257-1.3c-.091-.321-.181-.484-.27-.484-.152,0-.322.009-.518.022a2.342,2.342,0,0,0-.608.136,2.6,2.6,0,0,0-.639.344,2.325,2.325,0,0,0-.6.651c-.153.229-.339.517-.563.864l-.748,1.162c-.278.429-.569.894-.883,1.385s-.629,1-.955,1.519-.655,1.043-.983,1.571-.649,1.045-.96,1.548-.607.982-.886,1.435l-.337.554a1.923,1.923,0,0,0-1.968,3.236,1.609,1.609,0,0,0,1.08.473c.063.006.127.01.191.01a1.917,1.917,0,0,0,1.231-.445,2.825,2.825,0,0,0,.307-.259,5.1,5.1,0,0,0,.591-.695c.177-.257.346-.513.505-.77q1.2.06,2.4.038c.8-.013,1.622-.07,2.462-.165l.008,1.815a.612.612,0,0,0,.088.34.7.7,0,0,0,.23.222,1.087,1.087,0,0,0,.322.122,1.85,1.85,0,0,0,.375.042,2.476,2.476,0,0,0,1.184-.234,1.444,1.444,0,0,0,.621-.616,2.248,2.248,0,0,0,.243-.884c.027-.329.039-.68.039-1.044v-.537a7.211,7.211,0,0,0,1.084-.594,5.443,5.443,0,0,0,.8-.652c-.021.247-.036.5-.036.753a3.584,3.584,0,0,0,.257,1.426,2.9,2.9,0,0,0,.653.974,2.413,2.413,0,0,0,.889.558,2.826,2.826,0,0,0,.971.176,3,3,0,0,0,1.83-.549,3.8,3.8,0,0,0,1.209-1.652,2.759,2.759,0,0,1-.1,1.379,6.722,6.722,0,0,1-1.5,2.328,11.68,11.68,0,0,0-.952,1.374,7.276,7.276,0,0,0-.77,1.461,4.874,4.874,0,0,0-.2,1.325,2.926,2.926,0,0,0,.3,1.166,2.242,2.242,0,0,0,.545.676,3.07,3.07,0,0,0,.812.419,2.017,2.017,0,0,0,.683.137,3.03,3.03,0,0,0,1.409-.308,3.171,3.171,0,0,0,1-.814,4.3,4.3,0,0,0,.651-1.164,9.318,9.318,0,0,0,.393-1.353,13.374,13.374,0,0,0,.215-1.377c.049-.45.087-3.235.125-3.611a13.935,13.935,0,0,0,1.18-1.186,11.454,11.454,0,0,0,1.013-1.334,12.119,12.119,0,0,0,.731-1.292c0,.776.026,1.438.079,1.993a4.156,4.156,0,0,0,.326,1.36,1.631,1.631,0,0,0,.7.775,2.49,2.49,0,0,0,1.189.245,2.322,2.322,0,0,0,1.186-.332,4.672,4.672,0,0,0,1.069-.882,8.145,8.145,0,0,0,.931-1.241c.286-.463.543-.934.78-1.415.084-.172.16-.339.236-.507a6.349,6.349,0,0,0,.744,3.184,2.475,2.475,0,0,0,2.243,1.193,2.324,2.324,0,0,0,1.185-.332,4.665,4.665,0,0,0,1.072-.882,8.237,8.237,0,0,0,.929-1.241q.219-.358.42-.724a4.974,4.974,0,0,0,.163.7,3.366,3.366,0,0,0,.742,1.27,3.592,3.592,0,0,0,1.329.885,5.339,5.339,0,0,0,2,.329,3.718,3.718,0,0,0,1.541-.32,5.311,5.311,0,0,0,1.336-.854,7.775,7.775,0,0,0,1.117-1.213,12.572,12.572,0,0,0,.907-1.4,15.031,15.031,0,0,0,.7-1.418q.293-.7.48-1.265a.262.262,0,0,0,.018-.078v-.062A.281.281,0,0,0,235.267,1134.793Zm-13.74-1.271q.036-.559.092-1.149c.04-.4.084-.789.143-1.174s.116-.726.184-1.03a5.1,5.1,0,0,1,.211-.737q.107-.28.234-.28a.31.31,0,0,1,.264.131.805.805,0,0,1,.135.318,2.108,2.108,0,0,1,.049.379c.006.13.01.238.01.317a8.841,8.841,0,0,1-.313,2.206,6.476,6.476,0,0,1-.423,1.116,3.157,3.157,0,0,1-.621.873C221.493,1134.213,221.5,1133.892,221.528,1133.522Zm-27.871,4.756c-.659.012-1.313.02-1.954.02q.434-.806.883-1.7c.3-.595.6-1.2.894-1.82s.588-1.235.878-1.858.566-1.226.836-1.807c.13,1.112.228,2.259.29,3.45s.111,2.388.143,3.6C194.975,1138.226,194.317,1138.267,193.656,1138.278Zm12.576-.481a3.812,3.812,0,0,1-.559,1,2.473,2.473,0,0,1-.707.625,1.324,1.324,0,0,1-.656.215.508.508,0,0,1-.3-.092.686.686,0,0,1-.21-.252,1.328,1.328,0,0,1-.129-.364,2.091,2.091,0,0,1-.043-.437,5.647,5.647,0,0,1,.149-1.283,3.878,3.878,0,0,1,.476-1.176,2.7,2.7,0,0,1,.832-.856,2.169,2.169,0,0,1,1.22-.331h.221a6.109,6.109,0,0,0-.053.645c0,.209-.01.4-.01.57v.424A3.583,3.583,0,0,1,206.233,1137.8ZM207,1144.1c-.044.25-.079.5-.114.695a5.016,5.016,0,0,1-1.048,2.554.621.621,0,0,1-.379.168.6.6,0,0,1-.409-.133.458.458,0,0,1-.154-.342,5.089,5.089,0,0,1,1.012-2.421c.157-.219.335-.436.454-.578a3.774,3.774,0,0,1,.38-.4c.134-.125.257-.239.369-.33C207.079,1143.592,207.042,1143.851,207,1144.1Zm21.214-8.337a3.133,3.133,0,0,1,.3-.785,1.756,1.756,0,0,1,.463-.546,1,1,0,0,1,.627-.208.6.6,0,0,1,.5.177.69.69,0,0,1,.135.44,1.417,1.417,0,0,1-.175.682,1.949,1.949,0,0,1-.476.568,2.5,2.5,0,0,1-.693.4,2.993,2.993,0,0,1-.815.191A5.022,5.022,0,0,1,228.211,1135.765Z" transform="translate(-186.229 -1127.001)" fill="#141d3e"/>
      <path id="패스_2180" data-name="패스 2180" d="M536.952,1135.576a9.205,9.205,0,0,0-.588-3.216,7.037,7.037,0,0,0-1.639-2.572,7.659,7.659,0,0,0-2.737-1.7,10.943,10.943,0,0,0-3.846-.616,9.083,9.083,0,0,0-1.536.111,3.741,3.741,0,0,0-1.049.321,1.707,1.707,0,0,0-.646.529,2.166,2.166,0,0,0-.343.73,3.838,3.838,0,0,0-.138.92c-.014.337-.023.706-.023,1.107q0,.968.027,2.131c.018.774.037,1.589.052,2.439s.035,1.726.054,2.622.027,1.785.027,2.665a.924.924,0,0,0,.135.508,1.339,1.339,0,0,0,.338.362,1.518,1.518,0,0,0,.451.221,1.669,1.669,0,0,0,.466.074,1.865,1.865,0,0,0,.77-.147,1.142,1.142,0,0,0,.534-.56,3.731,3.731,0,0,0,.308-1.173,16.266,16.266,0,0,0,.1-1.99c0-.656-.014-1.31-.043-1.955s-.06-1.285-.092-1.918-.065-1.253-.1-1.87-.043-1.228-.043-1.833a3.325,3.325,0,0,1,.035-.441,1.163,1.163,0,0,1,.214-.512,1.441,1.441,0,0,1,.569-.425,2.8,2.8,0,0,1,1.1-.174,3.14,3.14,0,0,1,1.155.217,4.038,4.038,0,0,1,1.063.609,5.274,5.274,0,0,1,.921.941,6.413,6.413,0,0,1,.725,1.209,6.73,6.73,0,0,1,.473,1.406,7.1,7.1,0,0,1,.168,1.559c0,.672-.03,1.3-.084,1.86a4.636,4.636,0,0,1-.388,1.494,2.873,2.873,0,0,1-.894,1.081,3.847,3.847,0,0,1-1.566.614,1.432,1.432,0,1,0-1.634,1.627,1.561,1.561,0,0,0,.317.036,11.368,11.368,0,0,0,2.027-.119A6.157,6.157,0,0,0,536.952,1135.576Z" transform="translate(-447.42 -1127.362)" fill="#141d3e"/>
      <path id="패스_2181" data-name="패스 2181" d="M593.507,1135.9c-.594-.556-1.406-1.043-1.946-.4,0,0,.418-.474-.68-1.551,0,0-.9-.65-.67-1.2,0,0-2.187,1.28-.032,3.741,0,0-.067.342-.731.977a2.846,2.846,0,0,1-.94.6l0-.087c-.024-.675-.057-1.4-.1-2.175s-.092-1.545-.151-2.313-.125-1.5-.2-2.211-.152-1.331-.23-1.876a11.035,11.035,0,0,0-.254-1.3c-.094-.322-.184-.484-.272-.484-.151,0-.324.009-.519.022a2.368,2.368,0,0,0-.609.137,2.632,2.632,0,0,0-.639.344,2.359,2.359,0,0,0-.591.651c-.154.23-.343.517-.564.864s-.477.734-.75,1.162-.572.894-.883,1.385-.629,1-.954,1.519-.651,1.043-.982,1.571-.65,1.045-.961,1.548-.605.982-.886,1.435l-.36.59a1.925,1.925,0,1,0-.782,3.683,2.461,2.461,0,0,0,.931-.2,2.79,2.79,0,0,0,.716-.508,4.881,4.881,0,0,0,.586-.695q.269-.385.509-.77h.043a21.729,21.729,0,0,0,4.82.1l.008,1.589a.618.618,0,0,0,.088.34.7.7,0,0,0,.23.222,1.058,1.058,0,0,0,.321.122,1.834,1.834,0,0,0,.375.042,2.472,2.472,0,0,0,1.185-.234,1.46,1.46,0,0,0,.621-.616,2.239,2.239,0,0,0,.241-.884c.028-.319.041-.659.041-1.011a8.752,8.752,0,0,0,2.565-2.9s2.518,1.435,3.782-.993A1.455,1.455,0,0,1,593.507,1135.9Zm-11.142,1.18c.3-.595.6-1.2.9-1.82s.586-1.235.873-1.858.567-1.226.837-1.807c.13,1.112.225,2.259.292,3.45q.093,1.732.135,3.492c-.913.056-2.422.128-3.847.109C581.819,1138.145,582.089,1137.625,582.365,1137.076Z" transform="translate(-487.191 -1127.478)" fill="#141d3e"/>
    </g>
  </g>
</svg>
