<svg xmlns="http://www.w3.org/2000/svg" width="8" height="15" viewBox="0 0 8 15">
  <path id="ico_inquiry_questionmark" d="M119.459,80.705v-.672a3.893,3.893,0,0,1,.361-1.77,5.207,5.207,0,0,1,1.293-1.506,8.415,8.415,0,0,0,1.313-1.282,2.054,2.054,0,0,0,.381-1.262,1.448,1.448,0,0,0-.493-1.18,2.146,2.146,0,0,0-1.406-.409,4.643,4.643,0,0,0-1.562.266,10.186,10.186,0,0,0-1.487.672l-.839-1.913a8.772,8.772,0,0,1,1.862-.824,7.342,7.342,0,0,1,2.212-.317,4.018,4.018,0,0,1,2.9.987,3.449,3.449,0,0,1,1.025,2.6,3.978,3.978,0,0,1-.251,1.494,3.761,3.761,0,0,1-.746,1.151,14.373,14.373,0,0,1-1.181,1.118,8.153,8.153,0,0,0-.873.836,2.04,2.04,0,0,0-.411.682,2.642,2.642,0,0,0-.11.824v.509Zm-.355,3.236a1.357,1.357,0,0,1,1.432-1.569,1.5,1.5,0,0,1,1,.356,1.954,1.954,0,0,1,0,2.413,1.56,1.56,0,0,1-2.009,0A1.516,1.516,0,0,1,119.1,83.941Z" transform="translate(-117.021 -70.508)" fill="#fff"/>
</svg>
