<svg xmlns="http://www.w3.org/2000/svg" xmlns:xlink="http://www.w3.org/1999/xlink" width="25" height="20" viewBox="0 0 25 20">
  <defs>
    <clipPath id="clip-path">
      <rect id="사각형_10" data-name="사각형 10" width="25" height="20" transform="translate(0 0)" fill="none"/>
    </clipPath>
  </defs>
  <g id="A" transform="translate(0 0)">
    <g id="그룹_1" data-name="그룹 1" transform="translate(0 0)" clip-path="url(#clip-path)">
      <path id="패스_1833" data-name="패스 1833" d="M23.182,10.923c-.782-.734-1.851-1.376-2.562-.527,0,0,.55-.625-.9-2.047,0,0-1.184-.857-.882-1.582,0,0-2.88,1.689-.042,4.937,0,0-.088.451-.962,1.29a3.749,3.749,0,0,1-1.238.792l0-.114c-.032-.891-.076-1.846-.128-2.871s-.121-2.039-.2-3.053-.165-1.98-.26-2.917-.2-1.757-.3-2.476A14.584,14.584,0,0,0,15.375.639C15.251.215,15.132,0,15.017,0c-.2,0-.427.011-.684.03a3.1,3.1,0,0,0-.8.18,3.477,3.477,0,0,0-.841.454,3.114,3.114,0,0,0-.778.859c-.2.3-.452.683-.742,1.14s-.628.969-.988,1.533S9.43,5.375,9.02,6.024s-.828,1.317-1.257,2S6.906,9.4,6.471,10.1s-.856,1.379-1.265,2.043-.8,1.3-1.167,1.894l-.474.778a2.538,2.538,0,1,0-1.03,4.86,2.484,2.484,0,0,0,.269-.015,2.54,2.54,0,0,0,.957-.244,3.683,3.683,0,0,0,.943-.67,6.424,6.424,0,0,0,.772-.917q.355-.508.67-1.017l.057,0a28.576,28.576,0,0,0,6.346.129l.011,2.1a.816.816,0,0,0,.115.448.934.934,0,0,0,.3.293,1.419,1.419,0,0,0,.422.162,2.451,2.451,0,0,0,.494.055,3.25,3.25,0,0,0,1.56-.308,1.925,1.925,0,0,0,.818-.813,2.966,2.966,0,0,0,.317-1.167c.037-.421.053-.869.054-1.335a11.541,11.541,0,0,0,3.377-3.824s3.315,1.894,4.98-1.311a1.912,1.912,0,0,1-1.818-.319M8.512,12.48c.393-.785.786-1.588,1.18-2.4s.772-1.63,1.15-2.452.747-1.618,1.1-2.385c.171,1.467.3,2.981.385,4.553q.122,2.286.177,4.608c-1.2.073-3.189.169-5.065.144.351-.658.708-1.344,1.071-2.068" transform="translate(0 0)" fill="#fff"/>
    </g>
  </g>
</svg>
