<svg id="icon_계정관리" xmlns="http://www.w3.org/2000/svg" xmlns:xlink="http://www.w3.org/1999/xlink" width="20" height="20" viewBox="0 0 20 20">
  <defs>
    <clipPath id="clip-path">
      <rect id="사각형_2335" data-name="사각형 2335" width="20" height="20" fill="#fff"/>
    </clipPath>
  </defs>
  <g id="그룹_1390" data-name="그룹 1390" clip-path="url(#clip-path)">
    <path id="패스_2449" data-name="패스 2449" d="M20,11.541V8.459l-2.625-.069L16.354,5.925,18.162,4.02l-2.18-2.181L14.076,3.646,11.611,2.624,11.542,0H8.459l-.07,2.624L5.925,3.646,4.02,1.839,1.84,4.02,3.646,5.925,2.625,8.389,0,8.459v3.082l2.625.069,1.021,2.465L1.84,15.98l.1.1L4.02,18.161l1.905-1.808,2.464,1.02L8.459,20h3.083l.069-2.626,2.466-1.02,1.905,1.808,2.18-2.181-1.807-1.905,1.021-2.465Zm-10,2.6A4.14,4.14,0,1,1,14.141,10,4.14,4.14,0,0,1,10,14.14" fill="#fff"/>
  </g>
</svg>
