<svg xmlns="http://www.w3.org/2000/svg" width="16" height="14" viewBox="0 0 16 14">
  <g id="ico_refresh_d" data-name="ico refresh d" transform="translate(-97.503 -89.941)">
    <path id="패스_2416" data-name="패스 2416" d="M104.5,103.941a7.186,7.186,0,0,1-5.012-2.16,6.879,6.879,0,0,1-1.984-5,7.1,7.1,0,0,1,7.155-6.845h.161a7.118,7.118,0,0,1,7,7,6.8,6.8,0,0,1-1.887,4.7l-1.159-1.053a5.275,5.275,0,0,0,1.465-3.644,5.579,5.579,0,0,0-11.151-.122,5.352,5.352,0,0,0,1.545,3.891,5.6,5.6,0,0,0,3.906,1.683Z" fill="#999"/>
    <path id="패스_2417" data-name="패스 2417" d="M108.32,102.72l-1.52-4.812,1.477-.467,1.059,3.353,3.426-1.035.447,1.482Z" transform="translate(0.294 -0.019)" fill="#999"/>
  </g>
</svg>
