<svg xmlns="http://www.w3.org/2000/svg" width="14" height="14" viewBox="0 0 14 14">
  <g id="ico_Download_s" transform="translate(4 3)">
    <circle id="Ellipse_5" data-name="Ellipse 5" cx="7" cy="7" r="7" transform="translate(-4 -3)" fill="#fff"/>
    <path id="패스_2102" data-name="패스 2102" d="M10.795,5.824H10V3.471A.487.487,0,0,0,9.5,3h-2a.487.487,0,0,0-.5.471V5.824H6.2a.469.469,0,0,0-.355.8l2.295,2.16a.52.52,0,0,0,.7,0l2.3-2.16A.468.468,0,0,0,10.795,5.824ZM5,10.529A.487.487,0,0,0,5.5,11h6a.471.471,0,1,0,0-.941h-6A.487.487,0,0,0,5,10.529Z" transform="translate(-5.5 -3)" fill="#9ea4b2"/>
  </g>
</svg>
