<svg xmlns="http://www.w3.org/2000/svg" width="18" height="20" viewBox="0 0 18 20">
  <g id="_ico_Alarm_d" data-name=" ico_Alarm_d" transform="translate(0 0)">
    <path id="패스_1831" data-name="패스 1831" d="M74,197.943a2.53,2.53,0,0,0,2.554-2.5H71.447A2.53,2.53,0,0,0,74,197.943Z" transform="translate(-65.001 -177.943)" fill="#fff"/>
    <path id="패스_1832" data-name="패스 1832" d="M47.806,93.021,45.719,90.7a1.89,1.89,0,0,1-.486-1.264v-3.3a6.325,6.325,0,0,0-5.1-6.221V78.563a1.133,1.133,0,1,0-2.267,0v1.35a6.174,6.174,0,0,0-5.1,6.048v3.473a1.891,1.891,0,0,1-.486,1.264l-2.087,2.324a.753.753,0,0,0,.572,1.255H47.234A.753.753,0,0,0,47.806,93.021Z" transform="translate(-30 -77.423)" fill="#fff"/>
  </g>
</svg>
