<svg id="icon" xmlns="http://www.w3.org/2000/svg" xmlns:xlink="http://www.w3.org/1999/xlink" width="20" height="20" viewBox="0 0 20 20">
  <defs>
    <clipPath id="clip-path">
      <rect id="사각형_38" data-name="사각형 38" width="20" height="20" fill="#6f6cee"/>
    </clipPath>
  </defs>
  <g id="그룹_10" data-name="그룹 10" clip-path="url(#clip-path)">
    <path id="패스_1847" data-name="패스 1847" d="M10,0h0A10,10,0,1,0,20,10,10,10,0,0,0,10,0m5.252,8.469-4.91,5.152a1.646,1.646,0,0,1-2.261.11l-3.22-2.76a1.518,1.518,0,0,1-.127-2.2,1.668,1.668,0,0,1,2.28-.12L9.041,10.4l3.831-4.025a1.656,1.656,0,0,1,2.28-.1,1.508,1.508,0,0,1,.1,2.191" fill="#6f6cee"/>
  </g>
</svg>
