<svg id="icon_delete" xmlns="http://www.w3.org/2000/svg" xmlns:xlink="http://www.w3.org/1999/xlink" width="14" height="14" viewBox="0 0 14 14">
  <defs>
    <clipPath id="clip-path">
      <rect id="사각형_2255" data-name="사각형 2255" width="14" height="14" fill="#fff"/>
    </clipPath>
  </defs>
  <g id="그룹_90" data-name="그룹 90" clip-path="url(#clip-path)">
    <path id="패스_2418" data-name="패스 2418" d="M7,0a7,7,0,1,0,7,7A7.008,7.008,0,0,0,7,0m3.285,8.976a.925.925,0,0,1-1.309,1.309L7,8.309,5.024,10.285A.925.925,0,0,1,3.715,8.976L5.691,7,3.715,5.024A.925.925,0,0,1,5.024,3.715L7,5.691,8.976,3.715a.925.925,0,0,1,1.309,1.309L8.309,7Z" fill="#fff"/>
  </g>
</svg>
