<svg id="icon" xmlns="http://www.w3.org/2000/svg" xmlns:xlink="http://www.w3.org/1999/xlink" width="80" height="80" viewBox="0 0 80 80">
  <defs>
    <clipPath id="clip-path">
      <rect id="사각형_2525" data-name="사각형 2525" width="42" height="46" fill="#00baac"/>
    </clipPath>
  </defs>
  <g id="그룹_1490" data-name="그룹 1490">
    <path id="패스_1903" data-name="패스 1903" d="M40,0A40,40,0,1,0,80,40,39.966,39.966,0,0,0,40,0m0,75.294A35.551,35.551,0,0,1,4.706,40,35.551,35.551,0,0,1,40,4.706,35.551,35.551,0,0,1,75.294,40,35.551,35.551,0,0,1,40,75.294" fill="#d9d9d9"/>
  </g>
  <g id="그룹_1489" data-name="그룹 1489" transform="translate(19 17)">
    <g id="그룹_1488" data-name="그룹 1488" transform="translate(0 0)" clip-path="url(#clip-path)">
      <path id="패스_2554" data-name="패스 2554" d="M40.937,23.011a3.695,3.695,0,0,0-5.137,0l-11.168,10.9V3.542a3.632,3.632,0,0,0-7.261,0V33.908L6.2,23.011a3.695,3.695,0,0,0-5.136,0,3.479,3.479,0,0,0,0,5.007l17.37,16.943a3.636,3.636,0,0,0,1.817.961l.022.005c.1.02.2.034.3.045.019,0,.038.007.058.008.121.011.244.018.367.018s.242-.006.361-.017h.007c.019,0,.038-.006.058-.008.1-.011.2-.025.3-.045l.02,0,.05-.012a3.637,3.637,0,0,0,1.768-.949h0L40.937,28.019a3.48,3.48,0,0,0,0-5.007" transform="translate(0 0)" fill="#00baac"/>
    </g>
  </g>
</svg>
