<svg id="icon_check" xmlns="http://www.w3.org/2000/svg" xmlns:xlink="http://www.w3.org/1999/xlink" width="30" height="30" viewBox="0 0 30 30">
  <defs>
    <clipPath id="clip-path">
      <rect id="사각형_42" data-name="사각형 42" width="30" height="30" fill="none"/>
    </clipPath>
  </defs>
  <g id="그룹_13" data-name="그룹 13" clip-path="url(#clip-path)">
    <path id="패스_1849" data-name="패스 1849" d="M15,0h0A15,15,0,1,0,30,15,15,15,0,0,0,15,0m7.878,12.7-7.365,7.728a2.47,2.47,0,0,1-3.392.165l-4.83-4.14A2.277,2.277,0,0,1,7.1,13.163a2.5,2.5,0,0,1,3.421-.181L13.562,15.6l5.746-6.038a2.484,2.484,0,0,1,3.421-.148,2.261,2.261,0,0,1,.149,3.286" fill="#fff"/>
  </g>
</svg>
