<svg id="icon" xmlns="http://www.w3.org/2000/svg" xmlns:xlink="http://www.w3.org/1999/xlink" width="80" height="80" viewBox="0 0 80 80">
  <defs>
    <clipPath id="clip-path">
      <rect id="사각형_87" data-name="사각형 87" width="80" height="80" fill="none"/>
    </clipPath>
    <clipPath id="clip-path-2">
      <rect id="사각형_2303" data-name="사각형 2303" width="12" height="45" fill="#ee7d5e"/>
    </clipPath>
  </defs>
  <g id="그룹_81" data-name="그룹 81" clip-path="url(#clip-path)">
    <path id="패스_1903" data-name="패스 1903" d="M40,0A40,40,0,1,0,80,40,39.966,39.966,0,0,0,40,0m0,75.294A35.551,35.551,0,0,1,4.706,40,35.551,35.551,0,0,1,40,4.706,35.551,35.551,0,0,1,75.294,40,35.551,35.551,0,0,1,40,75.294" fill="#d9d9d9"/>
    <g id="그룹_1347" data-name="그룹 1347" transform="translate(34 18)">
      <g id="그룹_1346" data-name="그룹 1346" clip-path="url(#clip-path-2)">
        <path id="패스_2424" data-name="패스 2424" d="M5.184,30.147a2.835,2.835,0,0,1-.659-1.5L.569,5.2V4.887A.171.171,0,0,1,.5,4.762V4.637A3.468,3.468,0,0,1,2.235,1.66,7.317,7.317,0,0,1,6.4.5a7.182,7.182,0,0,1,4.163,1.191,3.688,3.688,0,0,1,1.8,2.946v.251a.449.449,0,0,0-.069.188V5.2L8.271,28.643a2.98,2.98,0,0,1-.659,1.473,1.606,1.606,0,0,1-1.214.47,1.663,1.663,0,0,1-1.214-.439m5.378,6.174A4.805,4.805,0,0,1,12.3,40.051a4.9,4.9,0,0,1-1.735,3.761A6,6,0,0,1,6.4,45.379,5.9,5.9,0,0,1,2.3,43.812,4.892,4.892,0,0,1,.569,40.051,4.8,4.8,0,0,1,2.3,36.321,5.975,5.975,0,0,1,6.4,34.786a6.07,6.07,0,0,1,4.163,1.536" transform="translate(-0.433 -0.439)" fill="#ee7d5e"/>
        <path id="패스_2425" data-name="패스 2425" d="M5.184,30.147a2.835,2.835,0,0,1-.659-1.5L.569,5.2V4.887A.171.171,0,0,1,.5,4.762V4.637A3.468,3.468,0,0,1,2.235,1.66,7.317,7.317,0,0,1,6.4.5a7.182,7.182,0,0,1,4.163,1.191,3.688,3.688,0,0,1,1.8,2.946v.251a.449.449,0,0,0-.069.188V5.2L8.271,28.643a2.98,2.98,0,0,1-.659,1.473,1.606,1.606,0,0,1-1.214.47A1.663,1.663,0,0,1,5.184,30.147Zm5.378,6.174A4.805,4.805,0,0,1,12.3,40.051a4.9,4.9,0,0,1-1.735,3.761A6,6,0,0,1,6.4,45.379,5.9,5.9,0,0,1,2.3,43.812,4.892,4.892,0,0,1,.569,40.051,4.8,4.8,0,0,1,2.3,36.321,5.975,5.975,0,0,1,6.4,34.786,6.07,6.07,0,0,1,10.561,36.321Z" transform="translate(-0.433 -0.439)" fill="#ee7d5e"/>
      </g>
    </g>
  </g>
</svg>
