<svg id="arrow_path" xmlns="http://www.w3.org/2000/svg" xmlns:xlink="http://www.w3.org/1999/xlink" width="18" height="18" viewBox="0 0 18 18">
  <defs>
    <clipPath id="clip-path">
      <rect id="사각형_51" data-name="사각형 51" width="18" height="18" fill="none"/>
    </clipPath>
  </defs>
  <g id="그룹_32" data-name="그룹 32" clip-path="url(#clip-path)">
    <path id="패스_1859" data-name="패스 1859" d="M9,0H9a9,9,0,1,0,9,9A9,9,0,0,0,9,0m2.808,9.763L7.751,13.736a1.119,1.119,0,0,1-1.558,0,1.063,1.063,0,0,1,0-1.526L9.47,9,6.192,5.79a1.063,1.063,0,0,1,0-1.526,1.119,1.119,0,0,1,1.558,0l4.057,3.973a1.063,1.063,0,0,1,0,1.526" fill="#333"/>
  </g>
</svg>
