<svg id="그룹_70" data-name="그룹 70" xmlns="http://www.w3.org/2000/svg" xmlns:xlink="http://www.w3.org/1999/xlink" width="24" height="24" viewBox="0 0 24 24">
  <defs>
    <clipPath id="clip-path">
      <rect id="사각형_57" data-name="사각형 57" width="24" height="24" fill="#ee7d5e"/>
    </clipPath>
  </defs>
  <g id="그룹_66" data-name="그룹 66" clip-path="url(#clip-path)">
    <path id="패스_1893" data-name="패스 1893" d="M3.123,24A3.123,3.123,0,0,1,.915,18.669L18.668.915a3.123,3.123,0,0,1,4.417,4.417L5.331,23.086A3.113,3.113,0,0,1,3.123,24" transform="translate(0 0)" fill="#ee7d5e"/>
    <path id="패스_1894" data-name="패스 1894" d="M20.877,24a3.113,3.113,0,0,1-2.208-.915L.915,5.332A3.123,3.123,0,0,1,5.332.915L23.085,18.669A3.123,3.123,0,0,1,20.877,24" transform="translate(0 0)" fill="#ee7d5e"/>
  </g>
</svg>
